Coordinates
version=1
nRows=17
nColumns=24
inDegrees=yes

Units are S.I. units (second, meters, Newtons, ...)
Angles are in degrees.

endheader
time	pelvis_tilt	pelvis_list	pelvis_rotation	pelvis_tx	pelvis_ty	pelvis_tz	hip_flexion_r	hip_adduction_r	hip_rotation_r	knee_angle_r	ankle_angle_r	subtalar_angle_r	mtp_angle_r	hip_flexion_l	hip_adduction_l	hip_rotation_l	knee_angle_l	ankle_angle_l	subtalar_angle_l	mtp_angle_l	lumbar_extension	lumbar_bending	lumbar_rotation
     26.69500000	     -0.68309860	     -9.34040090	   -269.19174155	     -0.01309614	      0.16626430	     -1.79504364	     32.70664278	     -2.44965767	     -7.84038696	     -2.96849901	     -2.15542587	      3.60202674	     12.30287226	     -5.70471532	      2.53592154	     -1.43131131	     -5.94588737	     11.67020945	      7.11276942	      9.16712168	     -8.63470566	     -0.89550998	     -2.51098475
     26.70000000	     -0.67177120	     -9.36375062	   -269.11668702	     -0.01247636	      0.16527101	     -1.79526292	     32.86022348	     -2.37685553	     -7.89479197	     -3.00201683	     -1.92462739	      3.57815029	     12.33113762	     -5.85110508	      2.44228077	     -1.36098029	     -6.34918014	     11.87694036	      7.29519929	      9.25362619	     -8.63804110	     -0.89233886	     -2.51908481
     26.70500000	     -0.67856001	     -9.36025734	   -269.03176877	     -0.01191917	      0.16429970	     -1.79551365	     33.01484623	     -2.34577325	     -7.93198846	     -3.20408314	     -1.71603742	      3.51972478	     12.33265190	     -5.99611626	      2.36381470	     -1.28630854	     -6.81051359	     12.13643490	      7.64047311	      9.37240128	     -8.66400821	     -0.89898436	     -2.53359255
     26.71000000	     -0.59779889	     -9.30271277	   -268.95038975	     -0.01129655	      0.16340149	     -1.79586713	     33.10580012	     -2.21491052	     -8.00403976	     -3.51769074	     -1.53289855	      3.31477881	     12.32401775	     -6.21433987	      2.18869400	     -1.19813042	     -7.25416835	     12.30006413	      7.76865836	      9.45250242	     -8.73529691	     -0.81232091	     -2.51747381
     26.71500000	     -0.56982180	     -9.26336062	   -268.86011853	     -0.01072165	      0.16246295	     -1.79624609	     33.22321100	     -2.16077337	     -7.96377502	     -3.95109752	     -1.40035263	      3.03544714	     12.27778046	     -6.36644384	      2.07118734	     -1.08476472	     -7.78724094	     12.49310068	      7.93742747	      9.57414921	     -8.79034879	     -0.77940512	     -2.52994207
     26.72000000	     -0.47682542	     -9.16526717	   -268.79282840	     -0.01012048	      0.16168462	     -1.79667349	     33.27998550	     -2.03026281	     -8.04923490	     -4.46043995	     -1.49492267	      2.88871907	     12.25355196	     -6.61165433	      1.88572604	     -0.99320240	     -8.26033867	     12.54581389	      7.97904709	      9.62033670	     -8.90594215	     -0.67705200	     -2.47287586
     26.72500000	     -0.39171137	     -9.04254561	   -268.70313478	     -0.00948816	      0.16093311	     -1.79718865	     33.29602443	     -1.92251791	     -8.09001265	     -5.05755406	     -1.61969174	      2.70795913	     12.23497801	     -6.86606657	      1.70451162	     -0.86549267	     -8.76443386	     12.63340891	      8.04053290	      9.68203651	     -9.02938822	     -0.58410829	     -2.46265091
     26.73000000	     -0.30366273	     -8.98848017	   -268.61233113	     -0.00882127	      0.16007321	     -1.79774658	     33.36888828	     -1.80848692	     -7.93986976	     -5.71142101	     -1.86986186	      2.16880976	     12.27800294	     -6.99280326	      1.50672662	     -0.83103507	     -9.37640451	     12.82437729	      8.45363878	     10.14875472	     -9.07028967	     -0.47858600	     -2.45175502
     26.73500000	     -0.23869359	     -8.85905713	   -268.54787500	     -0.00817245	      0.15933254	     -1.79845731	     33.32568793	     -1.71276820	     -7.76789797	     -6.41735548	     -2.22187148	      1.88966864	     12.80527567	     -7.24980954	      1.34654270	     -0.78482971	     -9.90255603	     12.80958910	      8.60000844	     11.09784065	     -9.17973002	     -0.38372926	     -2.46261883
     26.74000000	     -0.18542159	     -8.70583967	   -268.44883554	     -0.00746523	      0.15862456	     -1.79921766	     33.24510725	     -1.64544438	     -7.66579709	     -7.19398914	     -2.42423053	      1.86931779	     12.82199546	     -7.50369047	      1.18977546	     -0.66672246	    -10.47836791	     12.77783237	      8.61501527	     11.12301101	     -9.30971139	     -0.32429149	     -2.45309886
     26.74500000	     -0.12737595	     -8.56843152	   -268.33311673	     -0.00681045	      0.15793811	     -1.80000422	     33.16105746	     -1.58637678	     -7.59867390	     -7.97740764	     -2.62658085	      1.82192755	     12.86112003	     -7.72375015	      1.02847755	     -0.53663170	    -11.07819671	     12.72978592	      8.66938701	     11.16179447	     -9.41579646	     -0.25268331	     -2.45946325
     26.75000000	     -0.06177267	     -8.48300628	   -268.20799066	     -0.00615068	      0.15724008	     -1.80091698	     33.10274948	     -1.52585273	     -7.54746325	     -8.71447231	     -3.13491231	      1.58539814	     14.88839661	     -7.84732978	      0.84376870	     -0.50757192	    -11.75047365	     12.57035300	      9.00886055	     12.68601504	     -9.43879420	     -0.15576444	     -2.51416769
     26.75500000	     -0.03614430	     -8.34727871	   -268.10390684	     -0.00541144	      0.15662347	     -1.80183432	     33.06372019	     -1.50693689	     -7.59540672	     -9.54987175	     -3.48646426	      1.56834116	     14.84865653	     -8.05407889	      0.71381770	     -0.38069212	    -12.36911849	     12.47003106	      9.11949967	     12.72132145	     -9.51848049	     -0.12058106	     -2.50445492
     26.76000000	      0.05492054	     -8.26866107	   -267.97520029	     -0.00478193	      0.15609056	     -1.80268071	     33.07948181	     -1.45227913	     -7.75183858	    -10.22271673	     -4.33042821	      1.36974702	     14.71183774	     -8.08815384	      0.49397233	     -0.38748199	    -13.16645771	     12.27627894	      9.51544082	     13.34294650	     -9.54484774	      0.00179506	     -2.52503404
     26.76500000	      0.16612015	     -8.22403179	   -267.86250227	     -0.00408970	      0.15566353	     -1.80352138	     33.13852631	     -1.37826424	     -7.88028310	    -10.79629281	     -5.57142865	      0.84984748	     14.65005467	     -8.06605493	      0.26369826	     -0.31831121	    -13.97727508	     12.01263510	      9.69050287	     13.99619830	     -9.53387970	      0.13756298	     -2.51049580
     26.77000000	      0.31631194	     -8.20690552	   -267.69548649	     -0.00353309	      0.15533356	     -1.80435208	     33.22478057	     -1.32561863	     -8.17320815	    -11.38996274	     -6.55034132	      0.72980742	     14.55138970	     -7.96355655	     -0.00844706	     -0.15337880	    -14.85656922	     11.72919677	      9.80829492	     14.11155185	     -9.48726378	      0.32182590	     -2.49815704
     26.77500000	      0.47020744	     -8.19831049	   -267.58118068	     -0.00282305	      0.15513826	     -1.80510072	     33.29207788	     -1.20587062	     -8.09457722	    -12.02988667	     -7.42106553	     -0.01554343	     14.39091799	     -7.78258285	     -0.30303021	     -0.17415384	    -15.82710515	     11.23070772	     10.18437374	     16.56809457	     -9.44584100	      0.48111605	     -2.43012981
